# xmcd CD database file
#
# Track frame offsets:
#	150
#	12852
#	38762
#	53202
#	63997
#	83090
#	109860
#	122707
#	144135
#	160565
#	179080
#
# Disc length: 2631 seconds
#
# Revision: 0
# Processed by: cddbd v1.5PL3 Copyright (c) Steve Scherf et al.
# Submitted via: CDex 1.50
#
DISCID=870a450b
DTITLE=Elkie Brooks - Circles
DYEAR=1998
DGENRE=Jazz
TTITLE0=It All Comes back On You
TTITLE1=Live A Little Get Somewhere
TTITLE2=Circles
TTITLE3=Mercedes Benz
TTITLE4=Can't Find My Way Home
TTITLE5=Angel
TTITLE6=Pearl's A Singer
TTITLE7=Live In Peace
TTITLE8=Butterfly Bleu
TTITLE9=You're Gonna Make Me Cry
TTITLE10=Lilac Wine
EXTD=YEAR: 1998
EXTT0=
EXTT1=
EXTT2=
EXTT3=
EXTT4=
EXTT5=
EXTT6=
EXTT7=
EXTT8=
EXTT9=
EXTT10=
PLAYORDER=
